<mxfile host="app.diagrams.net" modified="2021-12-21T10:14:12.411Z" agent="5.0 (Windows NT 10.0; Win64; x64) AppleWebKit/537.36 (KHTML, like Gecko) Chrome/96.0.4664.110 Safari/537.36" etag="cYi2G4zlW1tVeJ30CnmM" version="16.0.0" type="github">
  <diagram name="Page-1" id="74e2e168-ea6b-b213-b513-2b3c1d86103e">
    <mxGraphModel dx="2755" dy="1535" grid="1" gridSize="10" guides="1" tooltips="1" connect="1" arrows="1" fold="1" page="1" pageScale="1" pageWidth="1654" pageHeight="2336" background="none" math="0" shadow="0">
      <root>
        <mxCell id="0" />
        <mxCell id="1" parent="0" />
        <mxCell id="xQMkfc86nEP2Wq04Peo4-59" style="edgeStyle=orthogonalEdgeStyle;rounded=0;orthogonalLoop=1;jettySize=auto;html=1;exitX=0.5;exitY=1;exitDx=0;exitDy=0;entryX=0.5;entryY=0;entryDx=0;entryDy=0;fontSize=22;" parent="1" source="xQMkfc86nEP2Wq04Peo4-1" target="xQMkfc86nEP2Wq04Peo4-50" edge="1">
          <mxGeometry relative="1" as="geometry" />
        </mxCell>
        <mxCell id="xQMkfc86nEP2Wq04Peo4-154" style="edgeStyle=orthogonalEdgeStyle;rounded=0;orthogonalLoop=1;jettySize=auto;html=1;exitX=0;exitY=0.5;exitDx=0;exitDy=0;entryX=1;entryY=0.5;entryDx=0;entryDy=0;fontSize=22;" parent="1" source="xQMkfc86nEP2Wq04Peo4-1" target="xQMkfc86nEP2Wq04Peo4-153" edge="1">
          <mxGeometry relative="1" as="geometry" />
        </mxCell>
        <mxCell id="xQMkfc86nEP2Wq04Peo4-1" value="&lt;font style=&quot;font-size: 22px;&quot;&gt;Khách hàng&lt;/font&gt;" style="rounded=1;whiteSpace=wrap;html=1;fontSize=22;" parent="1" vertex="1">
          <mxGeometry x="1080" y="670" width="230" height="130" as="geometry" />
        </mxCell>
        <mxCell id="xQMkfc86nEP2Wq04Peo4-2" value="&lt;font style=&quot;font-size: 27px&quot;&gt;Brse Flow Chart dự án&lt;/font&gt;" style="text;html=1;strokeColor=none;fillColor=none;align=center;verticalAlign=middle;whiteSpace=wrap;rounded=0;fontSize=27;fontStyle=1" parent="1" vertex="1">
          <mxGeometry x="1140" y="10" width="1015" height="130" as="geometry" />
        </mxCell>
        <mxCell id="xQMkfc86nEP2Wq04Peo4-42" style="edgeStyle=orthogonalEdgeStyle;rounded=0;orthogonalLoop=1;jettySize=auto;html=1;fontSize=22;entryX=0.5;entryY=0;entryDx=0;entryDy=0;" parent="1" source="xQMkfc86nEP2Wq04Peo4-3" target="xQMkfc86nEP2Wq04Peo4-12" edge="1">
          <mxGeometry relative="1" as="geometry">
            <Array as="points">
              <mxPoint x="1885" y="860" />
              <mxPoint x="1885" y="860" />
            </Array>
          </mxGeometry>
        </mxCell>
        <mxCell id="xQMkfc86nEP2Wq04Peo4-55" style="edgeStyle=orthogonalEdgeStyle;rounded=0;orthogonalLoop=1;jettySize=auto;html=1;exitX=0.659;exitY=1.015;exitDx=0;exitDy=0;entryX=0.5;entryY=0;entryDx=0;entryDy=0;fontSize=22;exitPerimeter=0;" parent="1" source="xQMkfc86nEP2Wq04Peo4-3" target="xQMkfc86nEP2Wq04Peo4-7" edge="1">
          <mxGeometry relative="1" as="geometry">
            <Array as="points">
              <mxPoint x="2031" y="800" />
            </Array>
          </mxGeometry>
        </mxCell>
        <mxCell id="xQMkfc86nEP2Wq04Peo4-120" style="edgeStyle=orthogonalEdgeStyle;rounded=0;orthogonalLoop=1;jettySize=auto;html=1;exitX=0.5;exitY=0;exitDx=0;exitDy=0;entryX=0.5;entryY=1;entryDx=0;entryDy=0;fontSize=22;" parent="1" source="xQMkfc86nEP2Wq04Peo4-3" target="xQMkfc86nEP2Wq04Peo4-66" edge="1">
          <mxGeometry relative="1" as="geometry" />
        </mxCell>
        <mxCell id="xQMkfc86nEP2Wq04Peo4-3" value="&lt;font style=&quot;font-size: 22px;&quot;&gt;Brse&lt;/font&gt;" style="rounded=1;whiteSpace=wrap;html=1;fontSize=22;" parent="1" vertex="1">
          <mxGeometry x="1860" y="670" width="260" height="130" as="geometry" />
        </mxCell>
        <mxCell id="xQMkfc86nEP2Wq04Peo4-56" style="edgeStyle=orthogonalEdgeStyle;rounded=0;orthogonalLoop=1;jettySize=auto;html=1;exitX=0.5;exitY=1;exitDx=0;exitDy=0;fontSize=22;entryX=1;entryY=0.25;entryDx=0;entryDy=0;" parent="1" source="xQMkfc86nEP2Wq04Peo4-7" target="xQMkfc86nEP2Wq04Peo4-12" edge="1">
          <mxGeometry relative="1" as="geometry">
            <mxPoint x="2040" y="1270" as="targetPoint" />
          </mxGeometry>
        </mxCell>
        <mxCell id="xQMkfc86nEP2Wq04Peo4-7" value="Đọc hiểu Task&lt;br style=&quot;font-size: 22px;&quot;&gt;Dịch,Post Trello,&amp;nbsp;&lt;br style=&quot;font-size: 22px;&quot;&gt;báo skype" style="whiteSpace=wrap;html=1;fontSize=22;" parent="1" vertex="1">
          <mxGeometry x="1962.5" y="1030" width="180" height="110" as="geometry" />
        </mxCell>
        <mxCell id="xQMkfc86nEP2Wq04Peo4-14" style="edgeStyle=orthogonalEdgeStyle;rounded=0;orthogonalLoop=1;jettySize=auto;html=1;fontSize=22;entryX=0.5;entryY=1;entryDx=0;entryDy=0;" parent="1" source="xQMkfc86nEP2Wq04Peo4-12" target="xQMkfc86nEP2Wq04Peo4-15" edge="1">
          <mxGeometry relative="1" as="geometry">
            <mxPoint x="2130" y="1155" as="targetPoint" />
          </mxGeometry>
        </mxCell>
        <mxCell id="xQMkfc86nEP2Wq04Peo4-62" style="edgeStyle=orthogonalEdgeStyle;rounded=0;orthogonalLoop=1;jettySize=auto;html=1;exitX=0.5;exitY=1;exitDx=0;exitDy=0;entryX=0.5;entryY=1;entryDx=0;entryDy=0;fontSize=22;" parent="1" source="xQMkfc86nEP2Wq04Peo4-12" target="xQMkfc86nEP2Wq04Peo4-58" edge="1">
          <mxGeometry relative="1" as="geometry" />
        </mxCell>
        <mxCell id="xQMkfc86nEP2Wq04Peo4-12" value="Dev" style="rounded=1;whiteSpace=wrap;html=1;fontSize=22;" parent="1" vertex="1">
          <mxGeometry x="1780" y="1430" width="200" height="120" as="geometry" />
        </mxCell>
        <mxCell id="xQMkfc86nEP2Wq04Peo4-64" style="edgeStyle=orthogonalEdgeStyle;rounded=0;orthogonalLoop=1;jettySize=auto;html=1;exitX=0.5;exitY=0;exitDx=0;exitDy=0;entryX=1;entryY=0.75;entryDx=0;entryDy=0;fontSize=22;" parent="1" source="xQMkfc86nEP2Wq04Peo4-15" target="xQMkfc86nEP2Wq04Peo4-3" edge="1">
          <mxGeometry relative="1" as="geometry" />
        </mxCell>
        <mxCell id="xQMkfc86nEP2Wq04Peo4-15" value="ET(工数見積)" style="rounded=0;whiteSpace=wrap;html=1;fontSize=22;" parent="1" vertex="1">
          <mxGeometry x="2230" y="900" width="130" height="70" as="geometry" />
        </mxCell>
        <mxCell id="xQMkfc86nEP2Wq04Peo4-48" value="Đã xác nhận" style="text;html=1;strokeColor=none;fillColor=none;align=center;verticalAlign=middle;whiteSpace=wrap;rounded=0;fontSize=22;" parent="1" vertex="1">
          <mxGeometry x="1790" y="900" width="110" height="110" as="geometry" />
        </mxCell>
        <mxCell id="xQMkfc86nEP2Wq04Peo4-50" value="Xác nhận" style="rhombus;whiteSpace=wrap;html=1;fontSize=22;" parent="1" vertex="1">
          <mxGeometry x="1120" y="970" width="150" height="130" as="geometry" />
        </mxCell>
        <mxCell id="xQMkfc86nEP2Wq04Peo4-52" value="" style="endArrow=classic;html=1;rounded=0;fontSize=22;exitX=1;exitY=0.5;exitDx=0;exitDy=0;" parent="1" source="xQMkfc86nEP2Wq04Peo4-50" edge="1">
          <mxGeometry relative="1" as="geometry">
            <mxPoint x="1325" y="954.3299999999999" as="sourcePoint" />
            <mxPoint x="1860" y="800" as="targetPoint" />
          </mxGeometry>
        </mxCell>
        <mxCell id="xQMkfc86nEP2Wq04Peo4-53" value="OK" style="edgeLabel;resizable=0;html=1;align=center;verticalAlign=middle;fontSize=22;" parent="xQMkfc86nEP2Wq04Peo4-52" connectable="0" vertex="1">
          <mxGeometry relative="1" as="geometry" />
        </mxCell>
        <mxCell id="xQMkfc86nEP2Wq04Peo4-63" style="edgeStyle=orthogonalEdgeStyle;rounded=0;orthogonalLoop=1;jettySize=auto;html=1;exitX=0;exitY=0.25;exitDx=0;exitDy=0;entryX=1;entryY=0.25;entryDx=0;entryDy=0;fontSize=22;" parent="1" source="xQMkfc86nEP2Wq04Peo4-58" target="xQMkfc86nEP2Wq04Peo4-3" edge="1">
          <mxGeometry relative="1" as="geometry">
            <Array as="points">
              <mxPoint x="2390" y="755" />
              <mxPoint x="2390" y="703" />
            </Array>
          </mxGeometry>
        </mxCell>
        <mxCell id="xQMkfc86nEP2Wq04Peo4-58" value="Start Dev,Test" style="whiteSpace=wrap;html=1;fontSize=22;" parent="1" vertex="1">
          <mxGeometry x="2350" y="730" width="150" height="70" as="geometry" />
        </mxCell>
        <mxCell id="xQMkfc86nEP2Wq04Peo4-122" style="edgeStyle=orthogonalEdgeStyle;rounded=0;orthogonalLoop=1;jettySize=auto;html=1;exitX=0;exitY=0.5;exitDx=0;exitDy=0;entryX=1;entryY=0.5;entryDx=0;entryDy=0;fontSize=22;startArrow=none;" parent="1" source="pd8-yEGjDNb1RQK0JbQd-3" target="xQMkfc86nEP2Wq04Peo4-77" edge="1">
          <mxGeometry relative="1" as="geometry" />
        </mxCell>
        <mxCell id="xQMkfc86nEP2Wq04Peo4-66" value="Test" style="rhombus;whiteSpace=wrap;html=1;fontSize=22;" parent="1" vertex="1">
          <mxGeometry x="1912.5" y="380" width="155" height="120" as="geometry" />
        </mxCell>
        <mxCell id="xQMkfc86nEP2Wq04Peo4-72" value="" style="endArrow=classic;html=1;rounded=0;fontSize=22;entryX=0.5;entryY=0;entryDx=0;entryDy=0;exitX=1;exitY=0.5;exitDx=0;exitDy=0;" parent="1" source="xQMkfc86nEP2Wq04Peo4-66" target="xQMkfc86nEP2Wq04Peo4-58" edge="1">
          <mxGeometry relative="1" as="geometry">
            <mxPoint x="2420" y="660" as="sourcePoint" />
            <mxPoint x="2418.8900000000003" y="740" as="targetPoint" />
            <Array as="points">
              <mxPoint x="2420" y="440" />
            </Array>
          </mxGeometry>
        </mxCell>
        <mxCell id="xQMkfc86nEP2Wq04Peo4-73" value="Lỗi(不具合)" style="edgeLabel;resizable=0;html=1;align=center;verticalAlign=middle;fontSize=22;" parent="xQMkfc86nEP2Wq04Peo4-72" connectable="0" vertex="1">
          <mxGeometry relative="1" as="geometry" />
        </mxCell>
        <mxCell id="xQMkfc86nEP2Wq04Peo4-123" style="edgeStyle=orthogonalEdgeStyle;rounded=0;orthogonalLoop=1;jettySize=auto;html=1;exitX=0;exitY=0.5;exitDx=0;exitDy=0;entryX=1;entryY=0.5;entryDx=0;entryDy=0;fontSize=22;" parent="1" source="xQMkfc86nEP2Wq04Peo4-77" target="xQMkfc86nEP2Wq04Peo4-110" edge="1">
          <mxGeometry relative="1" as="geometry" />
        </mxCell>
        <mxCell id="xQMkfc86nEP2Wq04Peo4-77" value="Nghiệm thu" style="rounded=1;whiteSpace=wrap;html=1;fontSize=22;" parent="1" vertex="1">
          <mxGeometry x="1670" y="410" width="120" height="60" as="geometry" />
        </mxCell>
        <mxCell id="xQMkfc86nEP2Wq04Peo4-90" value="1" style="text;html=1;align=center;verticalAlign=middle;resizable=0;points=[];autosize=1;strokeColor=none;fillColor=none;fontSize=22;" parent="1" vertex="1">
          <mxGeometry x="1820" y="740" width="30" height="30" as="geometry" />
        </mxCell>
        <mxCell id="xQMkfc86nEP2Wq04Peo4-91" value="2" style="text;html=1;align=center;verticalAlign=middle;resizable=0;points=[];autosize=1;strokeColor=none;fillColor=none;fontSize=22;" parent="1" vertex="1">
          <mxGeometry x="2060" y="1000" width="30" height="30" as="geometry" />
        </mxCell>
        <mxCell id="xQMkfc86nEP2Wq04Peo4-92" value="3" style="text;html=1;align=center;verticalAlign=middle;resizable=0;points=[];autosize=1;strokeColor=none;fillColor=none;fontSize=22;" parent="1" vertex="1">
          <mxGeometry x="1990" y="1430" width="30" height="30" as="geometry" />
        </mxCell>
        <mxCell id="xQMkfc86nEP2Wq04Peo4-93" value="4" style="text;html=1;align=center;verticalAlign=middle;resizable=0;points=[];autosize=1;strokeColor=none;fillColor=none;fontSize=22;" parent="1" vertex="1">
          <mxGeometry x="2260" y="970" width="30" height="30" as="geometry" />
        </mxCell>
        <mxCell id="xQMkfc86nEP2Wq04Peo4-94" value="5" style="text;html=1;align=center;verticalAlign=middle;resizable=0;points=[];autosize=1;strokeColor=none;fillColor=none;fontSize=22;" parent="1" vertex="1">
          <mxGeometry x="2125" y="740" width="30" height="30" as="geometry" />
        </mxCell>
        <mxCell id="xQMkfc86nEP2Wq04Peo4-95" value="6" style="text;html=1;align=center;verticalAlign=middle;resizable=0;points=[];autosize=1;strokeColor=none;fillColor=none;fontSize=22;" parent="1" vertex="1">
          <mxGeometry x="1310" y="710" width="30" height="30" as="geometry" />
        </mxCell>
        <mxCell id="xQMkfc86nEP2Wq04Peo4-96" value="7" style="text;html=1;align=center;verticalAlign=middle;resizable=0;points=[];autosize=1;strokeColor=none;fillColor=none;fontSize=22;" parent="1" vertex="1">
          <mxGeometry x="1220" y="860" width="30" height="30" as="geometry" />
        </mxCell>
        <mxCell id="xQMkfc86nEP2Wq04Peo4-97" value="8" style="text;html=1;align=center;verticalAlign=middle;resizable=0;points=[];autosize=1;strokeColor=none;fillColor=none;fontSize=22;" parent="1" vertex="1">
          <mxGeometry x="1835" y="805" width="30" height="30" as="geometry" />
        </mxCell>
        <mxCell id="xQMkfc86nEP2Wq04Peo4-98" value="9" style="text;html=1;align=center;verticalAlign=middle;resizable=0;points=[];autosize=1;strokeColor=none;fillColor=none;fontSize=22;" parent="1" vertex="1">
          <mxGeometry x="1855" y="1400" width="30" height="30" as="geometry" />
        </mxCell>
        <mxCell id="xQMkfc86nEP2Wq04Peo4-100" value="10" style="text;html=1;align=center;verticalAlign=middle;resizable=0;points=[];autosize=1;strokeColor=none;fillColor=none;fontSize=22;" parent="1" vertex="1">
          <mxGeometry x="2420" y="805" width="40" height="30" as="geometry" />
        </mxCell>
        <mxCell id="xQMkfc86nEP2Wq04Peo4-101" value="11" style="text;html=1;align=center;verticalAlign=middle;resizable=0;points=[];autosize=1;strokeColor=none;fillColor=none;fontSize=22;" parent="1" vertex="1">
          <mxGeometry x="2120" y="670" width="40" height="30" as="geometry" />
        </mxCell>
        <mxCell id="xQMkfc86nEP2Wq04Peo4-124" style="edgeStyle=orthogonalEdgeStyle;rounded=0;orthogonalLoop=1;jettySize=auto;html=1;exitX=0.5;exitY=1;exitDx=0;exitDy=0;fontSize=22;" parent="1" source="pd8-yEGjDNb1RQK0JbQd-6" edge="1">
          <mxGeometry relative="1" as="geometry">
            <mxPoint x="1930" y="670" as="targetPoint" />
            <Array as="points">
              <mxPoint x="1195" y="560" />
              <mxPoint x="1930" y="560" />
            </Array>
          </mxGeometry>
        </mxCell>
        <mxCell id="pd8-yEGjDNb1RQK0JbQd-7" style="edgeStyle=orthogonalEdgeStyle;rounded=0;orthogonalLoop=1;jettySize=auto;html=1;exitX=0;exitY=0.5;exitDx=0;exitDy=0;entryX=1;entryY=0.5;entryDx=0;entryDy=0;fontSize=22;" edge="1" parent="1" source="xQMkfc86nEP2Wq04Peo4-110" target="pd8-yEGjDNb1RQK0JbQd-6">
          <mxGeometry relative="1" as="geometry" />
        </mxCell>
        <mxCell id="xQMkfc86nEP2Wq04Peo4-110" value="Chứng cứ(証拠) hoàn thành" style="rounded=1;whiteSpace=wrap;html=1;fontSize=22;" parent="1" vertex="1">
          <mxGeometry x="1360" y="410" width="180" height="60" as="geometry" />
        </mxCell>
        <mxCell id="xQMkfc86nEP2Wq04Peo4-163" value="" style="edgeStyle=orthogonalEdgeStyle;rounded=0;orthogonalLoop=1;jettySize=auto;html=1;fontSize=22;" parent="1" source="xQMkfc86nEP2Wq04Peo4-116" target="xQMkfc86nEP2Wq04Peo4-162" edge="1">
          <mxGeometry relative="1" as="geometry" />
        </mxCell>
        <mxCell id="xQMkfc86nEP2Wq04Peo4-116" value="Approve" style="rounded=1;whiteSpace=wrap;html=1;fontSize=22;" parent="1" vertex="1">
          <mxGeometry x="770" y="1240" width="160" height="90" as="geometry" />
        </mxCell>
        <mxCell id="xQMkfc86nEP2Wq04Peo4-139" value="" style="endArrow=classic;html=1;rounded=0;fontSize=22;exitX=-0.004;exitY=0.449;exitDx=0;exitDy=0;exitPerimeter=0;entryX=1;entryY=0.5;entryDx=0;entryDy=0;" parent="1" source="xQMkfc86nEP2Wq04Peo4-3" target="xQMkfc86nEP2Wq04Peo4-1" edge="1">
          <mxGeometry relative="1" as="geometry">
            <mxPoint x="1660" y="870" as="sourcePoint" />
            <mxPoint x="1370" y="690" as="targetPoint" />
            <Array as="points" />
          </mxGeometry>
        </mxCell>
        <mxCell id="xQMkfc86nEP2Wq04Peo4-140" value="Báo cáo ET" style="edgeLabel;resizable=0;html=1;align=center;verticalAlign=middle;fontSize=22;" parent="xQMkfc86nEP2Wq04Peo4-139" connectable="0" vertex="1">
          <mxGeometry relative="1" as="geometry">
            <mxPoint x="195" y="-7" as="offset" />
          </mxGeometry>
        </mxCell>
        <mxCell id="xQMkfc86nEP2Wq04Peo4-141" value="" style="endArrow=classic;html=1;rounded=0;fontSize=22;entryX=0;entryY=0.75;entryDx=0;entryDy=0;exitX=1;exitY=0.75;exitDx=0;exitDy=0;" parent="1" source="xQMkfc86nEP2Wq04Peo4-1" target="xQMkfc86nEP2Wq04Peo4-3" edge="1">
          <mxGeometry relative="1" as="geometry">
            <mxPoint x="1660" y="870" as="sourcePoint" />
            <mxPoint x="1760" y="870" as="targetPoint" />
          </mxGeometry>
        </mxCell>
        <mxCell id="xQMkfc86nEP2Wq04Peo4-142" value="Giao task" style="edgeLabel;resizable=0;html=1;align=center;verticalAlign=middle;fontSize=22;" parent="xQMkfc86nEP2Wq04Peo4-141" connectable="0" vertex="1">
          <mxGeometry relative="1" as="geometry">
            <mxPoint x="-155" y="3" as="offset" />
          </mxGeometry>
        </mxCell>
        <mxCell id="xQMkfc86nEP2Wq04Peo4-150" value="" style="endArrow=classic;html=1;rounded=0;fontSize=22;exitX=0.004;exitY=0.156;exitDx=0;exitDy=0;exitPerimeter=0;entryX=1.006;entryY=0.185;entryDx=0;entryDy=0;entryPerimeter=0;" parent="1" source="xQMkfc86nEP2Wq04Peo4-3" target="xQMkfc86nEP2Wq04Peo4-1" edge="1">
          <mxGeometry relative="1" as="geometry">
            <mxPoint x="1650" y="700" as="sourcePoint" />
            <mxPoint x="1750" y="700" as="targetPoint" />
          </mxGeometry>
        </mxCell>
        <mxCell id="xQMkfc86nEP2Wq04Peo4-151" value="Báo cáo task đã xử lý" style="edgeLabel;resizable=0;html=1;align=center;verticalAlign=middle;fontSize=22;" parent="xQMkfc86nEP2Wq04Peo4-150" connectable="0" vertex="1">
          <mxGeometry relative="1" as="geometry">
            <mxPoint x="-17" as="offset" />
          </mxGeometry>
        </mxCell>
        <mxCell id="xQMkfc86nEP2Wq04Peo4-169" value="18" style="edgeLabel;html=1;align=center;verticalAlign=middle;resizable=0;points=[];fontSize=22;" parent="xQMkfc86nEP2Wq04Peo4-150" vertex="1" connectable="0">
          <mxGeometry x="0.903" y="-6" relative="1" as="geometry">
            <mxPoint x="1" y="-8" as="offset" />
          </mxGeometry>
        </mxCell>
        <mxCell id="xQMkfc86nEP2Wq04Peo4-155" style="edgeStyle=orthogonalEdgeStyle;rounded=0;orthogonalLoop=1;jettySize=auto;html=1;exitX=0.5;exitY=1;exitDx=0;exitDy=0;entryX=0.5;entryY=0;entryDx=0;entryDy=0;fontSize=22;startArrow=none;" parent="1" source="xQMkfc86nEP2Wq04Peo4-156" target="xQMkfc86nEP2Wq04Peo4-116" edge="1">
          <mxGeometry relative="1" as="geometry" />
        </mxCell>
        <mxCell id="xQMkfc86nEP2Wq04Peo4-160" style="edgeStyle=orthogonalEdgeStyle;rounded=0;orthogonalLoop=1;jettySize=auto;html=1;exitX=0.5;exitY=0;exitDx=0;exitDy=0;entryX=0.154;entryY=0;entryDx=0;entryDy=0;entryPerimeter=0;fontSize=22;" parent="1" source="xQMkfc86nEP2Wq04Peo4-153" target="xQMkfc86nEP2Wq04Peo4-3" edge="1">
          <mxGeometry relative="1" as="geometry" />
        </mxCell>
        <mxCell id="xQMkfc86nEP2Wq04Peo4-161" value="NO" style="edgeLabel;html=1;align=center;verticalAlign=middle;resizable=0;points=[];fontSize=22;" parent="xQMkfc86nEP2Wq04Peo4-160" vertex="1" connectable="0">
          <mxGeometry x="-0.0616" relative="1" as="geometry">
            <mxPoint as="offset" />
          </mxGeometry>
        </mxCell>
        <mxCell id="xQMkfc86nEP2Wq04Peo4-153" value="Review" style="rhombus;whiteSpace=wrap;html=1;fontSize=22;" parent="1" vertex="1">
          <mxGeometry x="770" y="647.5" width="160" height="175" as="geometry" />
        </mxCell>
        <mxCell id="xQMkfc86nEP2Wq04Peo4-156" value="OK" style="text;html=1;align=center;verticalAlign=middle;resizable=0;points=[];autosize=1;strokeColor=none;fillColor=none;fontSize=22;" parent="1" vertex="1">
          <mxGeometry x="825" y="980" width="50" height="30" as="geometry" />
        </mxCell>
        <mxCell id="xQMkfc86nEP2Wq04Peo4-157" value="" style="edgeStyle=orthogonalEdgeStyle;rounded=0;orthogonalLoop=1;jettySize=auto;html=1;exitX=0.5;exitY=1;exitDx=0;exitDy=0;entryX=0.5;entryY=0;entryDx=0;entryDy=0;fontSize=22;endArrow=none;" parent="1" source="xQMkfc86nEP2Wq04Peo4-153" target="xQMkfc86nEP2Wq04Peo4-156" edge="1">
          <mxGeometry relative="1" as="geometry">
            <mxPoint x="850" y="822.5" as="sourcePoint" />
            <mxPoint x="850" y="1155" as="targetPoint" />
          </mxGeometry>
        </mxCell>
        <mxCell id="xQMkfc86nEP2Wq04Peo4-162" value="Done" style="ellipse;whiteSpace=wrap;html=1;fontSize=22;rounded=1;" parent="1" vertex="1">
          <mxGeometry x="1105" y="1240" width="260" height="90" as="geometry" />
        </mxCell>
        <mxCell id="xQMkfc86nEP2Wq04Peo4-164" value="12" style="text;html=1;align=center;verticalAlign=middle;resizable=0;points=[];autosize=1;strokeColor=none;fillColor=none;fontSize=22;" parent="1" vertex="1">
          <mxGeometry x="1990" y="510" width="40" height="30" as="geometry" />
        </mxCell>
        <mxCell id="xQMkfc86nEP2Wq04Peo4-165" value="13" style="text;html=1;align=center;verticalAlign=middle;resizable=0;points=[];autosize=1;strokeColor=none;fillColor=none;fontSize=22;" parent="1" vertex="1">
          <mxGeometry x="2420" y="705" width="40" height="30" as="geometry" />
        </mxCell>
        <mxCell id="xQMkfc86nEP2Wq04Peo4-166" value="14" style="text;html=1;align=center;verticalAlign=middle;resizable=0;points=[];autosize=1;strokeColor=none;fillColor=none;fontSize=22;" parent="1" vertex="1">
          <mxGeometry x="1795" y="410" width="40" height="30" as="geometry" />
        </mxCell>
        <mxCell id="xQMkfc86nEP2Wq04Peo4-167" value="15" style="text;html=1;align=center;verticalAlign=middle;resizable=0;points=[];autosize=1;strokeColor=none;fillColor=none;fontSize=22;" parent="1" vertex="1">
          <mxGeometry x="1540" y="410" width="40" height="30" as="geometry" />
        </mxCell>
        <mxCell id="xQMkfc86nEP2Wq04Peo4-168" value="17" style="text;html=1;align=center;verticalAlign=middle;resizable=0;points=[];autosize=1;strokeColor=none;fillColor=none;fontSize=22;" parent="1" vertex="1">
          <mxGeometry x="1930" y="630" width="40" height="30" as="geometry" />
        </mxCell>
        <mxCell id="xQMkfc86nEP2Wq04Peo4-170" value="19" style="text;html=1;align=center;verticalAlign=middle;resizable=0;points=[];autosize=1;strokeColor=none;fillColor=none;fontSize=22;" parent="1" vertex="1">
          <mxGeometry x="930" y="700" width="40" height="30" as="geometry" />
        </mxCell>
        <mxCell id="xQMkfc86nEP2Wq04Peo4-171" value="20" style="text;html=1;align=center;verticalAlign=middle;resizable=0;points=[];autosize=1;strokeColor=none;fillColor=none;fontSize=22;" parent="1" vertex="1">
          <mxGeometry x="1850" y="635" width="40" height="30" as="geometry" />
        </mxCell>
        <mxCell id="xQMkfc86nEP2Wq04Peo4-172" value="21" style="text;html=1;align=center;verticalAlign=middle;resizable=0;points=[];autosize=1;strokeColor=none;fillColor=none;fontSize=22;" parent="1" vertex="1">
          <mxGeometry x="850" y="1200" width="40" height="30" as="geometry" />
        </mxCell>
        <mxCell id="xQMkfc86nEP2Wq04Peo4-173" value="22" style="text;html=1;align=center;verticalAlign=middle;resizable=0;points=[];autosize=1;strokeColor=none;fillColor=none;fontSize=22;" parent="1" vertex="1">
          <mxGeometry x="1065" y="1250" width="40" height="30" as="geometry" />
        </mxCell>
        <mxCell id="xQMkfc86nEP2Wq04Peo4-174" value="Làm các bước theo só thứ tự:" style="text;html=1;align=center;verticalAlign=middle;resizable=0;points=[];autosize=1;strokeColor=none;fillColor=none;fontSize=27;" parent="1" vertex="1">
          <mxGeometry x="780" y="340" width="370" height="40" as="geometry" />
        </mxCell>
        <mxCell id="xQMkfc86nEP2Wq04Peo4-175" value="Công việc hằng ngày của Brse :&amp;nbsp;" style="text;html=1;align=center;verticalAlign=middle;resizable=0;points=[];autosize=1;strokeColor=none;fillColor=none;fontSize=27;" parent="1" vertex="1">
          <mxGeometry x="770" y="200" width="410" height="40" as="geometry" />
        </mxCell>
        <mxCell id="xQMkfc86nEP2Wq04Peo4-176" value="- Sáng, Cuối buổi báo cáo tiến độ, dự định công việc." style="text;html=1;align=center;verticalAlign=middle;resizable=0;points=[];autosize=1;strokeColor=none;fillColor=none;fontSize=27;" parent="1" vertex="1">
          <mxGeometry x="1160" y="200" width="650" height="40" as="geometry" />
        </mxCell>
        <mxCell id="xQMkfc86nEP2Wq04Peo4-177" value="- Nhập thời Gian làm việc của member trong nhóm.(Wize Time)" style="text;html=1;align=center;verticalAlign=middle;resizable=0;points=[];autosize=1;strokeColor=none;fillColor=none;fontSize=27;" parent="1" vertex="1">
          <mxGeometry x="1160" y="240" width="770" height="40" as="geometry" />
        </mxCell>
        <mxCell id="pd8-yEGjDNb1RQK0JbQd-3" value="OK" style="text;html=1;align=center;verticalAlign=middle;resizable=0;points=[];autosize=1;strokeColor=none;fillColor=none;fontSize=17;" vertex="1" parent="1">
          <mxGeometry x="1835" y="425" width="40" height="30" as="geometry" />
        </mxCell>
        <mxCell id="pd8-yEGjDNb1RQK0JbQd-4" value="" style="edgeStyle=orthogonalEdgeStyle;rounded=0;orthogonalLoop=1;jettySize=auto;html=1;exitX=0;exitY=0.5;exitDx=0;exitDy=0;entryX=1;entryY=0.5;entryDx=0;entryDy=0;fontSize=22;endArrow=none;" edge="1" parent="1" source="xQMkfc86nEP2Wq04Peo4-66" target="pd8-yEGjDNb1RQK0JbQd-3">
          <mxGeometry relative="1" as="geometry">
            <mxPoint x="1912.5" y="440" as="sourcePoint" />
            <mxPoint x="1790" y="440" as="targetPoint" />
          </mxGeometry>
        </mxCell>
        <mxCell id="pd8-yEGjDNb1RQK0JbQd-6" value="&amp;nbsp;Dev tạo PR" style="rounded=1;whiteSpace=wrap;html=1;fontSize=22;" vertex="1" parent="1">
          <mxGeometry x="1130" y="410" width="130" height="60" as="geometry" />
        </mxCell>
        <mxCell id="pd8-yEGjDNb1RQK0JbQd-8" value="16" style="text;html=1;align=center;verticalAlign=middle;resizable=0;points=[];autosize=1;strokeColor=none;fillColor=none;fontSize=22;" vertex="1" parent="1">
          <mxGeometry x="1260" y="410" width="40" height="30" as="geometry" />
        </mxCell>
      </root>
    </mxGraphModel>
  </diagram>
</mxfile>
